# Blender v3.0.0 OBJ File: ''
# www.blender.org
mtllib obamid.mtl
o Plane
v -1.000000 0.000000 1.000000
v 1.000000 0.000000 1.000000
v -1.000000 0.000000 -1.000000
v 1.000000 0.000000 -1.000000
v 0.000000 1.600000 0.000000
vt 0.490662 0.795653
vt 0.503546 0.231770
vt 0.200750 0.507746
vt 0.500326 0.798803
vt 0.798059 0.525839
vt 0.932007 0.944636
vt 0.481626 0.797015
vt 0.042712 0.927107
vt 0.196952 0.516849
vt 0.197107 0.500559
vt 0.060023 0.082412
vt 0.496450 0.227823
vt 0.510925 0.228186
vt 0.797921 0.513472
vt 0.953515 0.098440
vt 0.794222 0.519208
vn 0.0000 -1.0000 0.0000
vn 0.8480 0.5300 0.0000
vn 0.0000 0.5300 0.8480
vn -0.8480 0.5300 0.0000
vn 0.0000 0.5300 -0.8480
usemtl Material.001
s off
f 3/1/1 2/2/1 1/3/1
f 2/4/2 4/5/2 5/6/2
f 2/7/3 5/8/3 1/9/3
f 1/10/4 5/11/4 3/12/4
f 4/13/5 3/14/5 5/15/5
f 3/1/1 4/16/1 2/2/1
